<?xml version="1.0" standalone="no"?><!DOCTYPE svg PUBLIC "-//W3C//DTD SVG 1.1//EN" "http://www.w3.org/Graphics/SVG/1.1/DTD/svg11.dtd"><svg t="1594886162203" class="icon" viewBox="0 0 1024 1024" version="1.1" xmlns="http://www.w3.org/2000/svg" p-id="3743" xmlns:xlink="http://www.w3.org/1999/xlink" width="48" height="48"><defs><style type="text/css"></style></defs><path d="M512 994.4C251.2 994.4 39.2 784 39.2 524.8S251.2 56 512 56s472.8 210.4 472.8 469.6-212 468.8-472.8 468.8zM512 88C268.8 88 71.2 284 71.2 524.8s197.6 437.6 440.8 437.6 440.8-196 440.8-437.6S755.2 88 512 88z" p-id="3744"></path><path d="M512 899.2c-208 0-376.8-168-376.8-374.4S304 150.4 512 150.4s376.8 168 376.8 374.4S720 899.2 512 899.2z m0-732.8c-199.2 0-360.8 160.8-360.8 358.4s161.6 358.4 360.8 358.4 360.8-160.8 360.8-358.4S711.2 166.4 512 166.4z" p-id="3745"></path><path d="M512 604.8c-44 0-80-36-80-80s36-80 80-80 80 36 80 80-36 80-80 80z m0-143.2c-35.2 0-64 28.8-64 64s28.8 64 64 64 64-28.8 64-64-28.8-64-64-64z" p-id="3746"></path><path d="M512 461.6c-4.8 0-8-3.2-8-8V200c0-4.8 3.2-8 8-8s8 3.2 8 8v253.6c0 4-3.2 8-8 8zM440 532.8H224c-4.8 0-8-3.2-8-8s3.2-8 8-8h216c4.8 0 8 3.2 8 8s-4 8-8 8zM39.2 295.2h-2.4c-4.8-0.8-9.6-4-12-8.8C-13.6 211.2 0.8 120 60.8 60.8 120.8 0.8 212-13.6 288 24.8c4.8 2.4 8 6.4 8.8 12 0.8 4.8-0.8 10.4-4.8 13.6l-241.6 240c-2.4 3.2-6.4 4.8-11.2 4.8zM200 36c-42.4 0-84 16.8-116 48-44.8 44.8-59.2 109.6-39.2 168l208-206.4c-17.6-6.4-35.2-9.6-52.8-9.6zM984.8 295.2c-4 0-8-1.6-11.2-4.8l-241.6-240c-4-4-5.6-8.8-4.8-13.6 0.8-4.8 4-9.6 8-12 76-38.4 167.2-24 227.2 36s74.4 150.4 36 225.6c-2.4 4.8-6.4 8-12 8.8h-1.6zM771.2 44.8l208 206.4c20-58.4 5.6-123.2-39.2-168-44.8-44-110.4-58.4-168.8-38.4zM150.4 1020c-3.2 0-7.2-0.8-10.4-4-7.2-5.6-8-16-2.4-22.4l92.8-112.8c5.6-7.2 16-8 22.4-2.4 7.2 5.6 8 16 2.4 22.4l-92.8 112.8c-2.4 4.8-7.2 6.4-12 6.4zM873.6 1020c-4.8 0-8.8-1.6-12-5.6L768 901.6c-5.6-7.2-4.8-16.8 2.4-22.4 7.2-5.6 16.8-4.8 22.4 2.4l92.8 112.8c5.6 7.2 4.8 16.8-2.4 22.4-2.4 2.4-6.4 3.2-9.6 3.2z" p-id="3747"></path><path d="M512 899.2c-208 0-376.8-168-376.8-374.4S304 150.4 512 150.4s376.8 168 376.8 374.4S720 899.2 512 899.2z m0-732.8c-199.2 0-360.8 160.8-360.8 358.4s161.6 358.4 360.8 358.4 360.8-160.8 360.8-358.4S711.2 166.4 512 166.4z" p-id="3748"></path><path d="M512 604.8c-44 0-80-36-80-80s36-80 80-80 80 36 80 80-36 80-80 80z m0-143.2c-35.2 0-64 28.8-64 64s28.8 64 64 64 64-28.8 64-64-28.8-64-64-64z" p-id="3749"></path><path d="M512 461.6c-4.8 0-8-3.2-8-8V200c0-4.8 3.2-8 8-8s8 3.2 8 8v253.6c0 4-3.2 8-8 8zM440 532.8H224c-4.8 0-8-3.2-8-8s3.2-8 8-8h216c4.8 0 8 3.2 8 8s-4 8-8 8z" p-id="3750"></path></svg>