<?xml version="1.0" standalone="no"?><!DOCTYPE svg PUBLIC "-//W3C//DTD SVG 1.1//EN" "http://www.w3.org/Graphics/SVG/1.1/DTD/svg11.dtd"><svg t="1594886099246" class="icon" viewBox="0 0 1024 1024" version="1.1" xmlns="http://www.w3.org/2000/svg" p-id="1439" xmlns:xlink="http://www.w3.org/1999/xlink" width="48" height="48"><defs><style type="text/css"></style></defs><path d="M827.8577919 709.52988816h-39.5198822V195.81545067c0-18.56337547-17.21076966-39.51988221-39.51910973-39.51988221H393.14526748c-22.78804779 0-39.51988221 21.22610093-39.5198822 39.51988221v513.71289253H274.58871079V590.97101402c0-108.6395073-158.07566643-103.9335823-158.07566643 0C116.51227188 614.43575096 116.4921875 867.64186096 116.4921875 867.64186096l0.01931191-39.55773354s0 39.51988221 39.51756477 39.51988221h671.82718277s79.0397644 6.21302604 79.0397644-79.03590202c-0.00154495-78.69446754-79.0397644-79.03899192-79.0397644-79.03899193zM590.74158859 195.73743057h118.5565567s39.51988221-2.47037887 39.5198822 39.55850602v474.23240662H590.74236106V195.73820305z m-197.59709358 39.55850602s1.63996697-39.55850601 39.51910973-39.55850602h118.55810165V709.52988816H393.14526748V235.29670906z m434.71175194 592.78741837H195.54894639c-41.29348755 0-39.51988221-39.51601982-39.51988221-39.51601983V590.97101402c0-54.33906555 79.03899192-52.60408402 79.03899192 0v118.55810166s-0.15449524 39.51988221 39.51910973 39.5198822h553.26908112s39.51988221 1.23518944 39.5198822 39.5198822c0 38.28005791-39.51910972 39.51524735-39.51910972 39.51524734z m-335.91359138-434.71097947c-10.92126846 0-19.75916862 8.83712768-19.75916864 19.7599411s8.83867264 19.7599411 19.75994112 19.7599411 19.75916862-8.83558273 19.75916861-19.75916862-8.83790017-19.7599411-19.75994109-19.7599411z m158.0764389 0c-10.90195657 0-19.7599411 8.83712768-19.7599411 19.7599411s8.85798455 19.7599411 19.7599411 19.7599411c10.92358589 0 19.7599411-8.83558273 19.7599411-19.75916862s-8.8363552-19.7599411-19.7599411-19.7599411z" p-id="1440"></path></svg>