<?xml version="1.0" standalone="no"?><!DOCTYPE svg PUBLIC "-//W3C//DTD SVG 1.1//EN" "http://www.w3.org/Graphics/SVG/1.1/DTD/svg11.dtd"><svg t="1594899399498" class="icon" viewBox="0 0 1024 1024" version="1.1" xmlns="http://www.w3.org/2000/svg" p-id="2215" xmlns:xlink="http://www.w3.org/1999/xlink" width="48" height="48"><defs><style type="text/css"></style></defs><path d="M997.587862 964.413793 17.355034 964.413793c-9.586759 0-17.355034-7.891862-17.355034-17.655172s7.768276-17.655172 17.355034-17.655172l980.232828 0c9.586759 0 17.337379 7.891862 17.337379 17.655172S1007.174621 964.413793 997.587862 964.413793z" p-id="2216"></path><path d="M521.992828 946.705655 173.921103 946.705655c-31.938207 0-57.908966-26.429793-57.908966-58.932966L116.012138 102.87669c0-32.485517 25.970759-58.91531 57.908966-58.91531l348.071724 0c31.938207 0 57.944276 26.429793 57.944276 58.91531l0 784.913655C579.937103 920.275862 553.931034 946.705655 521.992828 946.705655zM173.921103 79.254069c-12.8 0-23.198897 10.593103-23.198897 23.604966l0 784.913655c0 13.011862 10.416552 23.622621 23.198897 23.622621l348.071724 0c12.8 0 23.234207-10.610759 23.234207-23.622621L545.227034 102.87669c0-13.011862-10.434207-23.604966-23.234207-23.604966L173.921103 79.271724z" p-id="2217"></path><path d="M839.503448 950.784 603.136 950.784c-31.938207 0-57.908966-26.429793-57.908966-58.932966l0-559.13931c0-32.485517 25.988414-58.91531 57.908966-58.91531L839.503448 273.796414c31.955862 0 57.926621 26.429793 57.926621 58.91531l0 559.13931C897.430069 924.336552 871.441655 950.784 839.503448 950.784zM603.136 309.089103c-12.8 0-23.198897 10.593103-23.198897 23.604966l0 559.13931c0 13.011862 10.416552 23.622621 23.198897 23.622621L839.503448 915.456c12.8 0 23.216552-10.610759 23.216552-23.622621l0-559.13931c0-13.011862-10.434207-23.604966-23.216552-23.604966L603.136 309.089103z" p-id="2218"></path><path d="M295.688828 289.792l-85.504 0c-21.46869 0-38.929655-17.778759-38.929655-39.618207L171.255172 163.222069C171.272828 141.364966 188.716138 123.586207 210.184828 123.586207l85.504 0c21.46869 0 38.94731 17.778759 38.94731 39.635862l0 86.951724C334.636138 272.013241 317.157517 289.792 295.688828 289.792zM210.184828 141.241379c-11.881931 0-21.574621 9.851586-21.574621 21.98069l0 86.951724c0 12.111448 9.675034 21.963034 21.574621 21.963034l85.504 0c11.899586 0 21.592276-9.851586 21.592276-21.963034L317.281103 163.222069C317.281103 151.092966 307.588414 141.241379 295.688828 141.241379L210.184828 141.241379z" p-id="2219"></path><path d="M488.748138 289.792l-91.542069 0c-19.809103 0-35.910621-16.384-35.910621-36.528552L361.295448 160.114759C361.295448 139.970207 377.396966 123.586207 397.206069 123.586207l91.542069 0c19.809103 0 35.910621 16.384 35.910621 36.528552l0 93.131034C524.658759 273.408 508.557241 289.792 488.748138 289.792zM397.206069 141.241379c-10.24 0-18.555586 8.456828-18.555586 18.873379l0 93.131034c0 10.416552 8.333241 18.873379 18.555586 18.873379l91.542069 0c10.24 0 18.555586-8.456828 18.555586-18.873379L507.303724 160.114759c0-10.416552-8.333241-18.873379-18.555586-18.873379L397.206069 141.241379z" p-id="2220"></path><path d="M299.078621 484.228414l-92.248276 0c-19.614897 0-35.557517-16.225103-35.557517-36.175448l0-93.837241c0-19.950345 15.942621-36.175448 35.557517-36.175448l92.248276 0c19.597241 0 35.539862 16.225103 35.539862 36.175448l0 93.837241C334.618483 467.985655 318.675862 484.228414 299.078621 484.228414zM206.830345 335.677793c-10.028138 0-18.202483 8.315586-18.202483 18.520276l0 93.837241c0 10.222345 8.174345 18.520276 18.202483 18.520276l92.248276 0c10.028138 0 18.184828-8.315586 18.184828-18.520276l0-93.837241c0-10.222345-8.15669-18.520276-18.184828-18.520276L206.830345 335.677793z" p-id="2221"></path><path d="M488.077241 484.228414l-90.182621 0c-20.179862 0-36.599172-16.701793-36.599172-37.217103l0-91.753931c0-20.532966 16.41931-37.234759 36.599172-37.234759l90.182621 0c20.162207 0 36.581517 16.701793 36.581517 37.234759l0 91.753931C524.641103 467.526621 508.239448 484.228414 488.077241 484.228414zM397.894621 335.677793c-10.610759 0-19.244138 8.792276-19.244138 19.579586l0 91.753931c0 10.78731 8.633379 19.561931 19.244138 19.561931l90.182621 0c10.610759 0 19.226483-8.774621 19.226483-19.561931l0-91.753931c0-10.78731-8.615724-19.579586-19.226483-19.579586L397.894621 335.677793z" p-id="2222"></path><path d="M301.285517 690.564414l-96.697379 0c-18.379034 0-33.332966-15.218759-33.332966-33.933241L171.255172 558.256552c0-18.696828 14.953931-33.897931 33.332966-33.897931l96.697379 0c18.379034 0 33.332966 15.201103 33.332966 33.897931l0 98.374621C334.618483 675.345655 319.664552 690.564414 301.285517 690.564414zM204.605793 542.013793c-8.809931 0-15.977931 7.291586-15.977931 16.242759l0 98.374621c0 8.986483 7.168 16.278069 15.977931 16.278069l96.697379 0c8.809931 0 15.977931-7.291586 15.977931-16.278069L317.281103 558.256552c0-8.951172-7.168-16.242759-15.977931-16.242759L204.605793 542.013793z" p-id="2223"></path><path d="M491.04331 690.564414l-96.132414 0c-18.537931 0-33.633103-15.342345-33.633103-34.215724l0-97.809655c0-18.838069 15.077517-34.180414 33.633103-34.180414l96.132414 0c18.537931 0 33.597793 15.32469 33.597793 34.180414l0 97.809655C524.641103 675.222069 509.581241 690.564414 491.04331 690.564414zM394.910897 542.013793c-8.968828 0-16.278069 7.415172-16.278069 16.525241l0 97.809655c0 9.145379 7.309241 16.560552 16.278069 16.560552l96.132414 0c8.968828 0 16.242759-7.432828 16.242759-16.560552l0-97.809655c0-9.110069-7.291586-16.525241-16.242759-16.525241L394.910897 542.013793z" p-id="2224"></path><path d="M697.396966 494.11531l-72.474483 0c-12.058483 0-21.857103-10.010483-21.857103-22.298483l0-73.728c0-12.288 9.816276-22.298483 21.857103-22.298483l72.474483 0c12.111448 0 21.927724 10.010483 21.927724 22.298483l0 73.728C719.32469 484.104828 709.508414 494.11531 697.396966 494.11531zM624.922483 393.445517c-2.489379 0-4.519724 2.08331-4.519724 4.64331l0 73.728c0 2.56 2.030345 4.64331 4.519724 4.64331l72.474483 0c2.542345 0 4.590345-2.08331 4.590345-4.64331l0-73.728c0-2.52469-2.100966-4.64331-4.590345-4.64331L624.922483 393.445517z" p-id="2225"></path><path d="M821.79531 494.11531l-63.699862 0c-14.494897 0-26.288552-12.005517-26.288552-26.747586l0-64.794483c0-14.759724 11.793655-26.782897 26.288552-26.782897l63.699862 0c14.477241 0 26.270897 12.005517 26.270897 26.782897l0 64.794483C848.066207 482.109793 836.272552 494.11531 821.79531 494.11531zM758.077793 393.445517c-4.925793 0-8.951172 4.096-8.951172 9.127724l0 64.794483c0 5.014069 4.025379 9.092414 8.951172 9.092414l63.699862 0c4.925793 0 8.933517-4.078345 8.933517-9.092414l0-64.794483c0-5.031724-4.007724-9.127724-8.933517-9.127724L758.077793 393.445517z" p-id="2226"></path><path d="M779.705379 920.787862c-9.586759 0-17.337379-7.891862-17.337379-17.655172L762.368 711.732966c0-6.814897-5.455448-12.340966-12.129103-12.340966l-66.824828 0c-6.708966 0-12.146759 5.526069-12.146759 12.340966l0 120.584828c0 9.76331-7.750621 17.655172-17.355034 17.655172-9.586759 0-17.337379-7.891862-17.337379-17.655172l0-120.584828c0-26.270897 21.02731-47.65131 46.856828-47.65131l66.824828 0c25.829517 0 46.821517 21.380414 46.821517 47.65131l0 191.417379C797.060414 912.896 789.309793 920.787862 779.705379 920.787862z" p-id="2227"></path></svg>