<?xml version="1.0" standalone="no"?><!DOCTYPE svg PUBLIC "-//W3C//DTD SVG 1.1//EN" "http://www.w3.org/Graphics/SVG/1.1/DTD/svg11.dtd"><svg t="1595388818375" class="icon" viewBox="0 0 1024 1024" version="1.1" xmlns="http://www.w3.org/2000/svg" p-id="24611" xmlns:xlink="http://www.w3.org/1999/xlink" width="128" height="128"><defs><style type="text/css"></style></defs><path d="M821.546563 293.170551h97.856655c53.321892 0 96.658411-43.336519 96.65841-96.658411v-97.856655C1016.061628 45.333593 972.72511 1.997075 919.403218 1.997075h-97.856655c-53.321892 0-96.658411 43.336519-96.658411 96.65841v28.258606H549.844564c-36.546465 0-66.302877 29.756412-66.302877 66.302876v296.266017H382.290005V452.337396c0-66.103169-53.82116-119.92433-119.92433-119.924329H131.05802c-66.103169 0-119.92433 53.82116-119.924329 119.924329v131.307655c0 66.103169 53.82116 119.92433 119.924329 119.92433H262.365675c66.103169 0 119.92433-53.82116 119.92433-119.92433v-37.145587h101.251682V842.76548c0 36.546465 29.756412 66.302877 66.302877 66.302877h175.043588v18.273232c0 53.321892 43.336519 96.658411 96.658411 96.658411h97.856655c53.321892 0 96.658411-43.336519 96.65841-96.658411v-97.856655c0-53.321892-43.336519-96.658411-96.65841-96.65841h-97.856655c-53.321892 0-96.658411 43.336519-96.658411 96.65841v22.566943H549.844564c-5.09254 0-9.186543-4.094003-9.186544-9.186543V546.499464h184.230132v20.370161c0 53.321892 43.336519 96.658411 96.658411 96.65841h97.856655c53.321892 0 96.658411-43.336519 96.65841-96.65841v-97.856656c0-53.321892-43.336519-96.658411-96.65841-96.65841h-97.856655c-53.321892 0-96.658411 43.336519-96.658411 96.65841v20.370161H540.65802V193.216967c0-5.09254 4.094003-9.186543 9.186544-9.186543h175.043588v12.58157c0 53.222038 43.336519 96.558557 96.658411 96.558557zM325.173671 583.645051c0 34.649244-28.158752 62.807996-62.807996 62.807996H131.05802c-34.649244 0-62.807996-28.158752-62.807996-62.807996V452.337396c0-34.649244 28.158752-62.807996 62.807996-62.807996H262.365675c34.649244 0 62.807996 28.158752 62.807996 62.807996v131.307655z m456.830815 245.839883c0-21.768113 17.773964-39.542077 39.542077-39.542077h97.856655c21.768113 0 39.542077 17.773964 39.542077 39.542077v97.856655c0 21.768113-17.773964 39.542077-39.542077 39.542078h-97.856655c-21.768113 0-39.542077-17.773964-39.542077-39.542078v-97.856655z m0-360.471965c0-21.768113 17.773964-39.542077 39.542077-39.542077h97.856655c21.768113 0 39.542077 17.773964 39.542077 39.542077v97.856656c0 21.768113-17.773964 39.542077-39.542077 39.542077h-97.856655c-21.768113 0-39.542077-17.773964-39.542077-39.542077v-97.856656z m0-370.357484c0-21.768113 17.773964-39.542077 39.542077-39.542077h97.856655c21.768113 0 39.542077 17.773964 39.542077 39.542077v97.856655c0 21.768113-17.773964 39.542077-39.542077 39.542077h-97.856655c-21.768113 0-39.542077-17.773964-39.542077-39.542077v-97.856655z" fill="#e6e6e6" p-id="24612"></path></svg>