<?xml version="1.0" standalone="no"?><!DOCTYPE svg PUBLIC "-//W3C//DTD SVG 1.1//EN" "http://www.w3.org/Graphics/SVG/1.1/DTD/svg11.dtd"><svg t="1595387619736" class="icon" viewBox="0 0 1024 1024" version="1.1" xmlns="http://www.w3.org/2000/svg" p-id="4238" width="200" height="200" xmlns:xlink="http://www.w3.org/1999/xlink"><defs><style type="text/css"></style></defs><path d="M484.1 676.9V351.4h37.1V369c15.5-11.4 34.2-17.5 53.6-17.5h14.3c50 0 90.6 40.7 90.6 90.7v57.6c0 50-40.7 90.7-90.6 90.7h-14.3c-19.4 0-38.1-6.1-53.6-17.4V677h-37.1z m90.6-288.3c-29.5 0-53.5 24-53.5 53.4v57.8c0 29.5 24 53.4 53.5 53.4h14.4c29.5 0 53.5-24 53.5-53.4V442c0-29.5-24-53.4-53.5-53.4h-14.4z m-177 288.3V351.4h37.1v325.4h-37.1z" fill="" p-id="4239"></path><path d="M249.2 424.3h-0.2c-5.4 0-9.8-4.4-9.9-9.9l-2.6-129.3c-0.1-2.7 1-5.3 2.8-7.2 1.9-1.9 4.4-3 7.1-3h84.8c5.5 0 9.9 4.5 9.9 10 0 5.6-4.4 10.1-9.9 10.1h-74.7l2.4 119c0.1 5.5-4.2 10.1-9.7 10.3z m335.4 466.3c-18.9 9.3-38.6 17.5-59.2 24.6-11.7 4.7-20.3 3.2-28.2 0-94.8-32.8-172.2-88.9-230.1-166.8-46.8-63-80.7-140-100.9-229-33.9-149.8-17.3-280.8-16.6-286.3 1.4-10.9 8.8-20.2 19-23.9l323.7-95.5c10.9-4.4 24.2-5 38.1 0l323.7 95.5c10.2 3.7 17.6 13 19 23.9 0.4 3.1 5.9 92.3 4.4 156.5 0.1 0-8.1 377.4-292.9 501z m256-502.1c0.6-26.8 0.8-54.7 0.3-83.4-0.4-22.2-1.1-43.8-2.2-64.8L511.3 145 184 240.3c-3.3 42.3-7.8 150.3 19 267.1 43.8 191.3 147.6 317.3 308.4 374.8 20.7-7 39.6-15.3 57.1-24.5C807.2 757 834.1 473.8 840.6 388.5z" fill="" p-id="4240"></path></svg>