<?xml version="1.0" standalone="no"?><!DOCTYPE svg PUBLIC "-//W3C//DTD SVG 1.1//EN" "http://www.w3.org/Graphics/SVG/1.1/DTD/svg11.dtd"><svg t="1595388070766" class="icon" viewBox="0 0 1024 1024" version="1.1" xmlns="http://www.w3.org/2000/svg" p-id="11463" xmlns:xlink="http://www.w3.org/1999/xlink" width="128" height="128"><defs><style type="text/css"></style></defs><path d="M695.440427 755.171322l-159.025876-84.582397c56.141648-44.135196 71.381747-130.904399 71.381747-179.523723l0-101.236706c0-66.991764-89.159646-141.65423-178.694845-141.65423-89.503477 0-180.975794 74.693166-180.975794 141.65423l0 101.236706c0 44.243667 18.71627 133.732817 75.443249 179.164542l-154.979724 84.004229c0 0-40.502459 18.014282-40.502459 40.432875l0 60.788481c-0.030699 22.387893 18.122753 40.494273 40.455387 40.494273l526.899338 0c22.388916 0 40.550555-17.981537 40.550555-40.229237l0-60.383252C735.990982 771.685437 695.440427 755.171322 695.440427 755.171322zM687.925267 848.300372l-511.87004-0.313132 0-42.854017c3.452635-2.515287 8.248871-5.420453 12.060687-7.170307 1.11745-0.515746 2.242064-1.031493 3.327792-1.62501l154.956188-83.974553c14.115486-7.670703 23.527856-21.855774 24.918529-37.854143 1.460258-16.012695-5.217838-31.636534-17.771759-41.697681-40.229237-32.213679-57.476039-103.627149-57.476039-141.747351l0-101.236706c0-34.417881 64.9912-93.706195 133.029806-93.706195 69.287039 0 130.685411 58.492182 130.685411 93.706195l0 101.236706c0 37.588083-11.622712 109.298312-53.05638 141.856845-12.684904 9.983375-19.512403 25.605168-18.145266 41.681308 1.320065 16.029068 10.686387 30.371728 24.816199 38.120203l159.025876 84.238566c1.320065 0.718361 3.031033 1.515516 4.420683 2.093684 3.562129 1.514493 7.913227 3.984754 11.076266 6.170536L687.92322 848.300372zM855.911212 641.046075 704.454732 556.415582c55.477522-44.696991 63.741743-130.076544 63.741743-179.710988L768.196475 273.405927c0-68.428485-81.294514-145.355529-169.713286-145.355529-57.492412 0-116.266004 31.980365-150.47206 72.943312 19.505239 1.264806 41.018206 1.296529 59.59326 7.357572 24.964578-19.919678 56.586786-31.776727 90.8788-31.776727 68.437695 0 122.952286 60.850903 122.952286 96.830349l0 103.31504c0 38.369889-5.389754 108.626-46.322002 141.575436-12.466939 10.061147-19.200294 25.934672-17.903765 42.2298 1.320065 16.216333 10.521634 30.746258 24.543999 38.557154l151.470807 84.629469c1.289366 0.734734 2.983961 1.531889 4.38282 2.110057 3.459798 1.577938 7.803733 4.109598 10.920724 6.328126l0 43.166125-95.706759 0c14.467503 11.123338 18.825764 27.091008 24.410969 48.52518l78.622662 0c22.121833 0 40.057321-18.372439 40.057321-40.97932l0-60.804854C895.954207 657.918347 855.911212 641.046075 855.911212 641.046075z" p-id="11464"></path></svg>