<?xml version="1.0" standalone="no"?><!DOCTYPE svg PUBLIC "-//W3C//DTD SVG 1.1//EN" "http://www.w3.org/Graphics/SVG/1.1/DTD/svg11.dtd"><svg t="1595484633603" class="icon" viewBox="0 0 1024 1024" version="1.1" xmlns="http://www.w3.org/2000/svg" p-id="3423" xmlns:xlink="http://www.w3.org/1999/xlink" width="200" height="200"><defs><style type="text/css"></style></defs><path d="M174.08 532.48c-11.264 0-20.48-9.216-20.48-20.48 0-197.632 160.768-358.4 358.4-358.4 116.5312 0 226.304 56.9344 293.2736 152.3712 6.5536 9.216 4.3008 22.1184-4.9152 28.4672a20.35712 20.35712 0 0 1-28.4672-4.9152A318.75072 318.75072 0 0 0 512 194.56C336.896 194.56 194.56 336.896 194.56 512c0 11.264-9.216 20.48-20.48 20.48zM512 870.4c-116.5312 0-226.304-56.9344-293.2736-152.3712a20.35712 20.35712 0 0 1 4.9152-28.4672 20.35712 20.35712 0 0 1 28.4672 4.9152c59.392 84.5824 156.672 134.9632 259.8912 134.9632 175.104 0 317.44-142.336 317.44-317.44 0-11.264 9.216-20.48 20.48-20.48s20.48 9.216 20.48 20.48c0 197.632-160.768 358.4-358.4 358.4z" p-id="3424"></path><path d="M788.48 331.9808c-11.264 0-20.48-9.216-20.48-20.48V174.08c0-11.264 9.216-20.48 20.48-20.48s20.48 9.216 20.48 20.48v137.4208c0 11.4688-9.216 20.48-20.48 20.48zM235.52 870.4c-11.264 0-20.48-9.216-20.48-20.48v-137.4208c0-11.264 9.216-20.48 20.48-20.48s20.48 9.216 20.48 20.48v137.4208c0 11.264-9.216 20.48-20.48 20.48zM465.92 641.6384c-6.9632 0-14.1312-1.8432-20.48-5.5296-12.9024-7.3728-20.48-20.6848-20.48-35.6352v-177.152c0-14.7456 7.5776-28.0576 20.48-35.4304 12.9024-7.3728 28.2624-7.3728 40.96 0l153.3952 88.6784c12.9024 7.3728 20.48 20.6848 20.48 35.4304s-7.5776 28.0576-20.48 35.4304l-153.3952 88.6784c-6.3488 3.6864-13.312 5.5296-20.48 5.5296z m0-218.3168v177.152l153.6-88.4736 10.24-17.8176-10.24 17.8176-153.6-88.6784z" p-id="3425"></path></svg>